<svg width="61" height="61" viewBox="0 0 61 61" fill="none" xmlns="http://www.w3.org/2000/svg">
<path d="M60.5145 30.2403C60.5145 46.6386 47.1772 60.1945 30.5603 60.1945C14.162 60.1945 0.606079 46.8572 0.606079 30.2403C0.606079 13.842 13.9434 0.286133 30.5603 0.286133C47.1772 0.286133 60.5145 13.842 60.5145 30.2403Z" fill="#9E9EA6"/>
<path d="M51.1132 12.749V23.6812L57.6725 32.427L60.5149 28.4914C60.2963 23.4626 58.5471 18.4338 55.9233 14.2796L51.1132 12.749Z" fill="#524EEE"/>
<path d="M53.7368 49.2632V44.2344L43.242 47.514L36.9012 56.4784L41.7114 58.0089C46.303 56.2598 50.4572 53.1987 53.7368 49.2632Z" fill="#524EEE"/>
<path d="M30.7793 18.4346L19.4098 26.5244L23.7827 39.8617H37.7759L41.9302 26.5244L30.7793 18.4346Z" fill="#524EEE"/>
<path d="M30.7791 8.81429L41.0554 5.31598L38.213 1.38042C35.808 0.72449 33.1842 0.505859 30.7791 0.505859C28.374 0.505859 25.7504 0.72449 23.3453 1.38042L20.5028 5.31598L30.7791 8.81429Z" fill="#524EEE"/>
<path d="M24.4388 56.4784L18.0981 47.514L7.60321 44.2344V49.2632C10.8829 53.1987 15.0371 56.2598 19.6286 58.0089L24.4388 56.4784Z" fill="#524EEE"/>
<path d="M3.88592 32.427L10.4452 23.6812V12.749L5.63504 14.2796C3.01132 18.4338 1.26222 23.4626 1.04358 28.4914L3.88592 32.427Z" fill="#524EEE"/>
<path d="M51.1133 12.0924L55.4862 13.4043C51.5506 7.50093 45.6472 3.3467 39.0879 1.37891L41.7116 5.09581C46.5218 7.28225 50.676 11.6551 51.1133 12.0924Z" fill="#F7F7F7"/>
<path d="M10.4453 12.0925C13.7249 7.9383 19.191 5.5332 19.8469 5.31456L22.4707 1.59766C15.6927 3.56545 10.008 7.71968 6.07239 13.6231L10.4453 12.0925Z" fill="#F7F7F7"/>
<path d="M50.8949 24.1182L42.5865 26.7419L38.2136 40.0791L43.2424 47.0758L53.7373 43.7961C54.1746 43.1402 57.017 38.1114 57.2357 33.0826L50.8949 24.1182Z" fill="#F7F7F7"/>
<path d="M50.6767 23.4621V12.3113C50.2394 11.6553 46.3038 7.5011 41.4937 5.75195L30.9988 9.25027V17.996L42.3681 26.3045L50.6767 23.4621Z" fill="#F7F7F7"/>
<path d="M31.217 57.569C28.156 57.569 25.5323 57.1317 25.095 56.9131L20.7222 58.4436C24.0018 59.5368 27.2815 60.1927 30.9985 60.1927C34.4968 60.1927 37.9949 59.5368 41.2746 58.4436L36.9017 56.9131C34.7153 57.3504 32.7475 57.569 31.217 57.569Z" fill="#F7F7F7"/>
<path d="M60.5152 30.2398C60.5152 29.8025 60.5152 29.5839 60.5152 29.3652L57.8914 33.0822C57.6728 38.3297 54.6117 43.5771 54.3931 44.233V48.8245C58.3287 43.3584 60.5152 37.0178 60.5152 30.2398Z" fill="#F7F7F7"/>
<path d="M18.0978 47.0758L23.1266 40.0791L18.7537 26.7419L10.4453 24.1182L3.88599 33.0826C3.88599 33.9571 4.54186 39.6419 7.38423 43.7961L18.0978 47.0758Z" fill="#F7F7F7"/>
<path d="M25.0955 56.4766C25.9701 56.6952 31.4362 57.7885 36.465 56.4766L43.0243 47.5123L37.9954 40.5156H24.0023L18.9735 47.5123L25.0955 56.4766Z" fill="#F7F7F7"/>
<path d="M0.825439 29.3652C0.825439 29.5839 0.825439 30.0212 0.825439 30.2398C0.825439 36.7991 3.01193 43.3585 7.16616 48.6059V44.0144C4.32379 39.6415 3.66791 33.7381 3.66791 32.8635L0.825439 29.3652Z" fill="#F7F7F7"/>
<path d="M10.6642 12.5299V23.6807L18.9728 26.3045L30.3421 17.996V9.25027L19.8472 5.75195C19.1913 6.18924 13.9438 8.59434 10.6642 12.5299Z" fill="#F7F7F7"/>
</svg>
