<svg width="33" height="32" viewBox="0 0 33 32" fill="none" xmlns="http://www.w3.org/2000/svg">
<path d="M29.207 19.293L26.5 16.586V13C26.4969 10.5218 25.575 8.13285 23.9126 6.29498C22.2502 4.45712 19.9654 3.30093 17.5 3.05V1H15.5V3.05C13.0346 3.30093 10.7498 4.45712 9.08737 6.29498C7.42498 8.13285 6.5031 10.5218 6.5 13V16.586L3.793 19.293C3.60545 19.4805 3.50006 19.7348 3.5 20V23C3.5 23.2652 3.60536 23.5196 3.79289 23.7071C3.98043 23.8946 4.23478 24 4.5 24H11.5V24.777C11.4782 26.0456 11.9254 27.2777 12.7558 28.237C13.5862 29.1964 14.7414 29.8156 16 29.976C16.6952 30.0449 17.3971 29.9676 18.0606 29.749C18.7241 29.5304 19.3345 29.1753 19.8525 28.7066C20.3706 28.2379 20.7848 27.666 21.0685 27.0277C21.3522 26.3893 21.4992 25.6986 21.5 25V24H28.5C28.7652 24 29.0196 23.8946 29.2071 23.7071C29.3946 23.5196 29.5 23.2652 29.5 23V20C29.4999 19.7348 29.3946 19.4805 29.207 19.293ZM19.5 25C19.5 25.7956 19.1839 26.5587 18.6213 27.1213C18.0587 27.6839 17.2956 28 16.5 28C15.7044 28 14.9413 27.6839 14.3787 27.1213C13.8161 26.5587 13.5 25.7956 13.5 25V24H19.5V25ZM27.5 22H5.5V20.414L8.207 17.707C8.39455 17.5195 8.49994 17.2652 8.5 17V13C8.5 10.8783 9.34285 8.84344 10.8431 7.34315C12.3434 5.84285 14.3783 5 16.5 5C18.6217 5 20.6566 5.84285 22.1569 7.34315C23.6571 8.84344 24.5 10.8783 24.5 13V17C24.5001 17.2652 24.6054 17.5195 24.793 17.707L27.5 20.414V22Z" fill="#524EEE"/>
</svg>
