<svg width="25" height="32" viewBox="0 0 25 32" fill="none" xmlns="http://www.w3.org/2000/svg">
<path d="M7.54182 5C7.75454 5 7.95856 5.08112 8.10898 5.22553C8.2594 5.36993 8.3439 5.56578 8.3439 5.77V7.2099H16.9571V5.7799C16.9571 5.57568 17.0416 5.37983 17.1921 5.23543C17.3425 5.09102 17.5465 5.0099 17.7592 5.0099C17.9719 5.0099 18.176 5.09102 18.3264 5.23543C18.4768 5.37983 18.5613 5.57568 18.5613 5.7799V7.2099H21.6665C22.2741 7.2099 22.8568 7.44153 23.2866 7.85388C23.7163 8.26622 23.9579 8.82551 23.9582 9.4088V24.8011C23.9579 25.3844 23.7163 25.9437 23.2866 26.356C22.8568 26.7684 22.2741 27 21.6665 27H3.33317C2.72558 27 2.14286 26.7684 1.71312 26.356C1.28338 25.9437 1.04181 25.3844 1.0415 24.8011V9.4088C1.04181 8.82551 1.28338 8.26622 1.71312 7.85388C2.14286 7.44153 2.72558 7.2099 3.33317 7.2099H6.73973V5.7689C6.74004 5.56487 6.82468 5.3693 6.97506 5.22514C7.12545 5.08097 7.32929 5 7.54182 5ZM2.64567 13.5162V24.8011C2.64567 24.8878 2.66345 24.9736 2.698 25.0537C2.73255 25.1337 2.78319 25.2065 2.84703 25.2678C2.91087 25.3291 2.98666 25.3777 3.07008 25.4109C3.15349 25.444 3.24289 25.4611 3.33317 25.4611H21.6665C21.7568 25.4611 21.8462 25.444 21.9296 25.4109C22.013 25.3777 22.0888 25.3291 22.1526 25.2678C22.2165 25.2065 22.2671 25.1337 22.3017 25.0537C22.3362 24.9736 22.354 24.8878 22.354 24.8011V13.5316L2.64567 13.5162ZM8.68077 21.0809V22.9135H6.77067V21.0809H8.68077ZM13.4543 21.0809V22.9135H11.5454V21.0809H13.4543ZM18.229 21.0809V22.9135H16.3189V21.0809H18.229ZM8.68077 16.7062V18.5388H6.77067V16.7062H8.68077ZM13.4543 16.7062V18.5388H11.5454V16.7062H13.4543ZM18.229 16.7062V18.5388H16.3189V16.7062H18.229ZM6.73973 8.7488H3.33317C3.24289 8.7488 3.15349 8.76587 3.07008 8.79904C2.98666 8.83221 2.91087 8.88082 2.84703 8.94211C2.78319 9.0034 2.73255 9.07615 2.698 9.15623C2.66345 9.2363 2.64567 9.32213 2.64567 9.4088V11.9773L22.354 11.9927V9.4088C22.354 9.32213 22.3362 9.2363 22.3017 9.15623C22.2671 9.07615 22.2165 9.0034 22.1526 8.94211C22.0888 8.88082 22.013 8.83221 21.9296 8.79904C21.8462 8.76587 21.7568 8.7488 21.6665 8.7488H18.5613V9.7707C18.5613 9.97492 18.4768 10.1708 18.3264 10.3152C18.176 10.4596 17.9719 10.5407 17.7592 10.5407C17.5465 10.5407 17.3425 10.4596 17.1921 10.3152C17.0416 10.1708 16.9571 9.97492 16.9571 9.7707V8.7488H8.3439V9.7608C8.3439 9.96502 8.2594 10.1609 8.10898 10.3053C7.95856 10.4497 7.75454 10.5308 7.54182 10.5308C7.32909 10.5308 7.12508 10.4497 6.97466 10.3053C6.82424 10.1609 6.73973 9.96502 6.73973 9.7608V8.7488Z" fill="#524EEE"/>
</svg>
