<svg width="33" height="32" viewBox="0 0 33 32" fill="none" xmlns="http://www.w3.org/2000/svg">
<path d="M16.4998 2.66669C9.14784 2.66669 3.1665 8.64802 3.1665 16C3.1665 23.352 9.14784 29.3334 16.4998 29.3334C23.8518 29.3334 29.8332 23.352 29.8332 16C29.8332 8.64802 23.8518 2.66669 16.4998 2.66669ZM16.4998 26.6667C10.6185 26.6667 5.83317 21.8814 5.83317 16C5.83317 10.1187 10.6185 5.33335 16.4998 5.33335C22.3812 5.33335 27.1665 10.1187 27.1665 16C27.1665 21.8814 22.3812 26.6667 16.4998 26.6667Z" fill="#4758D6"/>
<path d="M17.8332 9.33331H15.1665V17.3333H23.1665V14.6666H17.8332V9.33331Z" fill="#4758D6"/>
</svg>
