<svg width="35" height="23" viewBox="0 0 35 23" fill="none" xmlns="http://www.w3.org/2000/svg">
<path d="M31.8639 22.7201H2.99589C2.26381 22.7188 1.5621 22.4274 1.04455 21.9096C0.527005 21.3918 0.235837 20.69 0.234863 19.9579V3.37573C0.235512 2.64343 0.526536 1.94128 1.04412 1.42324C1.5617 0.905192 2.2636 0.613544 2.99589 0.612244H31.8639C32.596 0.613543 33.2977 0.905023 33.8152 1.4228C34.3328 1.94058 34.624 2.64242 34.6249 3.3745V19.9567C34.6257 20.3196 34.5549 20.6791 34.4165 21.0146C34.278 21.3501 34.0747 21.6549 33.8182 21.9117C33.5617 22.1684 33.257 22.372 32.9216 22.5107C32.5863 22.6495 32.2268 22.7206 31.8639 22.7201Z" fill="#00A6ED"/>
<path d="M26.5014 15.3509H4.67356C4.47343 15.3499 4.28181 15.2698 4.14052 15.128C3.99923 14.9863 3.91976 14.7944 3.91943 14.5943V11.1946C3.91943 10.7856 4.25351 10.438 4.67356 10.438H26.5014C26.9092 10.438 27.2556 10.7733 27.2556 11.1946V14.6066C27.2551 14.705 27.2352 14.8024 27.197 14.8931C27.1588 14.9838 27.1031 15.0661 27.033 15.1353C26.9629 15.2044 26.8799 15.259 26.7887 15.296C26.6975 15.333 26.5999 15.3517 26.5014 15.3509Z" fill="#F4F4F4"/>
<path d="M28.9173 20.2637H31.1207C31.2585 20.2646 31.3951 20.238 31.5226 20.1857C31.6501 20.1333 31.7659 20.0562 31.8634 19.9587C31.9608 19.8613 32.038 19.7454 32.0903 19.618C32.1427 19.4905 32.1692 19.3539 32.1684 19.2161V17.0127C32.1692 16.8748 32.1427 16.7382 32.0903 16.6108C32.038 16.4833 31.9608 16.3675 31.8634 16.27C31.7659 16.1726 31.6501 16.0954 31.5226 16.0431C31.3951 15.9907 31.2585 15.9642 31.1207 15.965H28.9173C28.7795 15.9642 28.6429 15.9907 28.5154 16.0431C28.388 16.0954 28.2721 16.1726 28.1747 16.27C28.0772 16.3675 28.0001 16.4833 27.9477 16.6108C27.8954 16.7382 27.8688 16.8748 27.8696 17.0127V19.2161C27.8719 19.4932 27.983 19.7584 28.179 19.9544C28.375 20.1504 28.6402 20.2615 28.9173 20.2637Z" fill="#FFF478"/>
<path d="M34.6249 4.29688H0.234863V7.98153H34.6249V4.29688Z" fill="#321B41"/>
<path d="M5.14795 12.8944C5.14795 12.7315 5.21265 12.5753 5.32782 12.4601C5.44299 12.345 5.59919 12.2803 5.76206 12.2803H19.2724C19.4353 12.2803 19.5915 12.345 19.7067 12.4601C19.8219 12.5753 19.8866 12.7315 19.8866 12.8944C19.8866 13.0573 19.8219 13.2135 19.7067 13.3286C19.5915 13.4438 19.4353 13.5085 19.2724 13.5085H5.76206C5.59919 13.5085 5.44299 13.4438 5.32782 13.3286C5.21265 13.2135 5.14795 13.0573 5.14795 12.8944Z" fill="#9B9B9B"/>
</svg>
