<svg width="24" height="25" viewBox="0 0 24 25" fill="none" xmlns="http://www.w3.org/2000/svg">
<path d="M7.2403 1.5C7.44452 1.5 7.64037 1.58112 7.78477 1.72553C7.92918 1.86993 8.0103 2.06578 8.0103 2.27V3.7099H16.279V2.2799C16.279 2.07568 16.3601 1.87983 16.5045 1.73543C16.6489 1.59102 16.8448 1.5099 17.049 1.5099C17.2532 1.5099 17.4491 1.59102 17.5935 1.73543C17.7379 1.87983 17.819 2.07568 17.819 2.2799V3.7099H20.8C21.3833 3.7099 21.9427 3.94153 22.3552 4.35388C22.7678 4.76622 22.9997 5.32551 23 5.9088V21.3011C22.9997 21.8844 22.7678 22.4437 22.3552 22.856C21.9427 23.2684 21.3833 23.5 20.8 23.5H3.2C2.61671 23.5 2.0573 23.2684 1.64475 22.856C1.23221 22.4437 1.00029 21.8844 1 21.3011V5.9088C1.00029 5.32551 1.23221 4.76622 1.64475 4.35388C2.0573 3.94153 2.61671 3.7099 3.2 3.7099H6.4703V2.2689C6.47059 2.06487 6.55185 1.8693 6.69622 1.72514C6.84059 1.58097 7.03627 1.5 7.2403 1.5ZM2.54 10.0162V21.3011C2.54 21.3878 2.55707 21.4736 2.59024 21.5537C2.62341 21.6337 2.67202 21.7065 2.73331 21.7678C2.7946 21.8291 2.86735 21.8777 2.94743 21.9109C3.0275 21.944 3.11333 21.9611 3.2 21.9611H20.8C20.8867 21.9611 20.9725 21.944 21.0526 21.9109C21.1326 21.8777 21.2054 21.8291 21.2667 21.7678C21.328 21.7065 21.3766 21.6337 21.4098 21.5537C21.4429 21.4736 21.46 21.3878 21.46 21.3011V10.0316L2.54 10.0162ZM6.4703 5.2488H3.2C3.11333 5.2488 3.0275 5.26587 2.94743 5.29904C2.86735 5.33221 2.7946 5.38082 2.73331 5.44211C2.67202 5.5034 2.62341 5.57615 2.59024 5.65623C2.55707 5.7363 2.54 5.82213 2.54 5.9088V8.4773L21.46 8.4927V5.9088C21.46 5.82213 21.4429 5.7363 21.4098 5.65623C21.3766 5.57615 21.328 5.5034 21.2667 5.44211C21.2054 5.38082 21.1326 5.33221 21.0526 5.29904C20.9725 5.26587 20.8867 5.2488 20.8 5.2488H17.819V6.2707C17.819 6.47492 17.7379 6.67077 17.5935 6.81517C17.4491 6.95958 17.2532 7.0407 17.049 7.0407C16.8448 7.0407 16.6489 6.95958 16.5045 6.81517C16.3601 6.67077 16.279 6.47492 16.279 6.2707V5.2488H8.0103V6.2608C8.0103 6.46502 7.92918 6.66087 7.78477 6.80527C7.64037 6.94968 7.44452 7.0308 7.2403 7.0308C7.03608 7.0308 6.84023 6.94968 6.69583 6.80527C6.55142 6.66087 6.4703 6.46502 6.4703 6.2608V5.2488Z" fill="#524EEE"/>
<path d="M12 11.5L10.74 14.25L8 15.5L10.74 16.76L12 19.5L13.25 16.76L16 15.5L13.25 14.25L12 11.5Z" fill="#524EEE"/>
</svg>
