<svg width="33" height="32" viewBox="0 0 33 32" fill="none" xmlns="http://www.w3.org/2000/svg">
<path d="M24.0467 14.9333C23.7401 14.5333 23.3667 14.1867 23.0201 13.84C22.1267 13.04 21.1134 12.4667 20.2601 11.6267C18.2734 9.68 17.8334 6.46667 19.1001 4C17.8334 4.30667 16.7267 5 15.7801 5.76C12.3267 8.53333 10.9667 13.4267 12.5934 17.6267C12.6467 17.76 12.7001 17.8933 12.7001 18.0667C12.7001 18.36 12.5001 18.6267 12.2334 18.7333C11.9267 18.8667 11.6067 18.7867 11.3534 18.5733C11.2773 18.5104 11.2139 18.4334 11.1667 18.3467C9.66007 16.44 9.42007 13.7067 10.4334 11.52C8.20673 13.3333 6.9934 16.4 7.16673 19.2933C7.24673 19.96 7.32673 20.6267 7.5534 21.2933C7.74007 22.0933 8.10007 22.8933 8.50007 23.6C9.94007 25.9067 12.4334 27.56 15.1134 27.8933C17.9667 28.2533 21.0201 27.7333 23.2067 25.76C25.6467 23.5467 26.5001 20 25.2467 16.96L25.0734 16.6133C24.7934 16 24.0467 14.9333 24.0467 14.9333ZM19.8334 23.3333C19.4601 23.6533 18.8467 24 18.3667 24.1333C16.8734 24.6667 15.3801 23.92 14.5001 23.04C16.0867 22.6667 17.0334 21.4933 17.3134 20.3067C17.5401 19.24 17.1134 18.36 16.9401 17.3333C16.7801 16.3467 16.8067 15.5067 17.1667 14.5867C17.4201 15.0933 17.6867 15.6 18.0067 16C19.0334 17.3333 20.6467 17.92 20.9934 19.7333C21.0467 19.92 21.0734 20.1067 21.0734 20.3067C21.1134 21.4 20.6334 22.6 19.8334 23.3333Z" fill="#4758D6"/>
</svg>
