<svg width="32" height="32" viewBox="0 0 32 32" fill="none" xmlns="http://www.w3.org/2000/svg">
<path d="M15.9998 18.6666C17.8412 18.6666 19.5078 17.92 20.7145 16.7133C21.9198 15.508 22.6665 13.8413 22.6665 12C22.6665 10.1586 21.9198 8.49198 20.7145 7.28665C19.5078 6.07998 17.8412 5.33331 15.9998 5.33331C14.1585 5.33331 12.4918 6.07998 11.2852 7.28665C10.0798 8.49198 9.33317 10.1586 9.33317 12C9.33317 13.8413 10.0798 15.508 11.2852 16.7133C11.9036 17.3335 12.6385 17.8253 13.4476 18.1605C14.2567 18.4957 15.124 18.6677 15.9998 18.6666ZM26.6665 20C27.1045 20.0009 27.5383 19.9152 27.9432 19.748C28.348 19.5808 28.7158 19.3353 29.0255 19.0256C29.3352 18.7159 29.5807 18.3481 29.7479 17.9433C29.9151 17.5385 30.0007 17.1046 29.9998 16.6666C29.9998 15.7466 29.6278 14.9133 29.0238 14.3093C28.7146 13.9993 28.3471 13.7535 27.9426 13.586C27.538 13.4185 27.1044 13.3326 26.6665 13.3333C26.2285 13.3324 25.7947 13.4181 25.3899 13.5853C24.985 13.7525 24.6172 13.998 24.3075 14.3077C23.9978 14.6174 23.7523 14.9852 23.5851 15.39C23.4179 15.7948 23.3323 16.2287 23.3332 16.6666C23.3325 17.1046 23.4182 17.5384 23.5855 17.9431C23.7527 18.3478 23.9982 18.7156 24.3079 19.0252C24.6176 19.3349 24.9853 19.5804 25.3901 19.7477C25.7948 19.9149 26.2286 20.0007 26.6665 20ZM26.6665 20.7866C24.8918 20.7866 23.5572 21.328 22.7772 22.0773C21.2905 20.8546 18.9398 20 15.9998 20C12.9785 20 10.6732 20.864 9.2105 22.0853C8.41584 21.332 7.0665 20.7866 5.33317 20.7866C2.41584 20.7866 0.666504 22.24 0.666504 23.696C0.666504 24.4226 2.41584 25.152 5.33317 25.152C6.1385 25.152 6.86117 25.084 7.49717 24.9746L7.44384 25.3346C7.44384 26.668 10.6518 28.0013 15.9998 28.0013C21.0158 28.0013 24.5558 26.668 24.5558 25.3346L24.5292 24.9946C25.1465 25.092 25.8558 25.152 26.6665 25.152C29.4012 25.152 31.3332 24.4226 31.3332 23.696C31.3332 22.24 29.5025 20.7866 26.6665 20.7866ZM5.33317 20C6.25317 20 7.0865 19.628 7.6905 19.024C8.00049 18.7147 8.24629 18.3473 8.41379 17.9427C8.58128 17.5382 8.66717 17.1045 8.6665 16.6666C8.66738 16.2287 8.58176 15.7948 8.41456 15.39C8.24735 14.9852 8.00186 14.6174 7.69215 14.3077C7.38245 13.998 7.01464 13.7525 6.60982 13.5853C6.20501 13.4181 5.77116 13.3324 5.33317 13.3333C4.89523 13.3326 4.46146 13.4184 4.05673 13.5856C3.65199 13.7529 3.28425 13.9984 2.97458 14.3081C2.66491 14.6177 2.41941 14.9855 2.25214 15.3902C2.08487 15.7949 1.99913 16.2287 1.99984 16.6666C1.99896 17.1046 2.08458 17.5385 2.25178 17.9433C2.41899 18.3481 2.66448 18.7159 2.97419 19.0256C3.28389 19.3353 3.65171 19.5808 4.05652 19.748C4.46134 19.9152 4.89518 20.0009 5.33317 20Z" fill="#4758D6"/>
</svg>
