<svg width="33" height="32" viewBox="0 0 33 32" fill="none" xmlns="http://www.w3.org/2000/svg">
<path d="M16.5002 22.6666C17.2074 22.6666 17.8857 22.3857 18.3858 21.8856C18.8859 21.3855 19.1668 20.7072 19.1668 20C19.1668 19.2927 18.8859 18.6145 18.3858 18.1144C17.8857 17.6143 17.2074 17.3333 16.5002 17.3333C15.7929 17.3333 15.1146 17.6143 14.6145 18.1144C14.1144 18.6145 13.8335 19.2927 13.8335 20C13.8335 20.7072 14.1144 21.3855 14.6145 21.8856C15.1146 22.3857 15.7929 22.6666 16.5002 22.6666ZM24.5002 10.6666C25.2074 10.6666 25.8857 10.9476 26.3858 11.4477C26.8859 11.9478 27.1668 12.6261 27.1668 13.3333V26.6666C27.1668 27.3739 26.8859 28.0522 26.3858 28.5523C25.8857 29.0524 25.2074 29.3333 24.5002 29.3333H8.50016C7.79292 29.3333 7.11464 29.0524 6.61454 28.5523C6.11445 28.0522 5.8335 27.3739 5.8335 26.6666V13.3333C5.8335 12.6261 6.11445 11.9478 6.61454 11.4477C7.11464 10.9476 7.79292 10.6666 8.50016 10.6666H9.8335V7.99998C9.8335 6.23187 10.5359 4.53618 11.7861 3.28593C13.0364 2.03569 14.7321 1.33331 16.5002 1.33331C17.3756 1.33331 18.2425 1.50575 19.0514 1.84078C19.8602 2.17581 20.5952 2.66688 21.2142 3.28593C21.8333 3.90499 22.3243 4.63992 22.6594 5.44876C22.9944 6.25759 23.1668 7.1245 23.1668 7.99998V10.6666H24.5002ZM16.5002 3.99998C15.4393 3.99998 14.4219 4.42141 13.6717 5.17155C12.9216 5.9217 12.5002 6.93911 12.5002 7.99998V10.6666H20.5002V7.99998C20.5002 6.93911 20.0787 5.9217 19.3286 5.17155C18.5784 4.42141 17.561 3.99998 16.5002 3.99998Z" fill="#4758D6"/>
</svg>
