<svg width="33" height="32" viewBox="0 0 33 32" fill="none" xmlns="http://www.w3.org/2000/svg">
<path d="M5.83317 26.6666C5.09984 26.6666 4.47228 26.4058 3.9505 25.884C3.42873 25.3622 3.16739 24.7342 3.1665 24V7.99998C3.1665 7.26665 3.42784 6.63909 3.9505 6.11731C4.47317 5.59553 5.10073 5.3342 5.83317 5.33331H27.1665C27.8998 5.33331 28.5278 5.59465 29.0505 6.11731C29.5732 6.63998 29.8341 7.26754 29.8332 7.99998V24C29.8332 24.7333 29.5723 25.3613 29.0505 25.884C28.5287 26.4066 27.9007 26.6675 27.1665 26.6666H5.83317ZM16.4998 17.3333L27.1665 10.6666V7.99998L16.4998 14.6666L5.83317 7.99998V10.6666L16.4998 17.3333Z" fill="#524EEE"/>
</svg>
