<svg width="33" height="32" viewBox="0 0 33 32" fill="none" xmlns="http://www.w3.org/2000/svg">
<path d="M10.2778 22.2222H11.5444L20.2333 13.5333L18.9667 12.2667L10.2778 20.9556V22.2222ZM8.5 24V20.2222L20.2333 8.51111C20.4111 8.34815 20.6076 8.22222 20.8227 8.13333C21.0378 8.04444 21.2636 8 21.5 8C21.737 8 21.9667 8.04444 22.1889 8.13333C22.4111 8.22222 22.6037 8.35556 22.7667 8.53333L23.9889 9.77778C24.1667 9.94074 24.2964 10.1333 24.3782 10.3556C24.46 10.5778 24.5006 10.8 24.5 11.0222C24.5 11.2593 24.4594 11.4853 24.3782 11.7004C24.297 11.9156 24.1673 12.1117 23.9889 12.2889L12.2778 24H8.5ZM19.5889 12.9111L18.9667 12.2667L20.2333 13.5333L19.5889 12.9111Z" fill="#4758D6"/>
</svg>
