<svg width="32" height="32" viewBox="0 0 32 32" fill="none" xmlns="http://www.w3.org/2000/svg">
<path fill-rule="evenodd" clip-rule="evenodd" d="M21.3337 12C21.3337 13.4144 20.7718 14.771 19.7716 15.7712C18.7714 16.7714 17.4148 17.3333 16.0003 17.3333C14.5858 17.3333 13.2293 16.7714 12.2291 15.7712C11.2289 14.771 10.667 13.4144 10.667 12C10.667 10.5855 11.2289 9.22892 12.2291 8.22872C13.2293 7.22853 14.5858 6.66663 16.0003 6.66663C17.4148 6.66663 18.7714 7.22853 19.7716 8.22872C20.7718 9.22892 21.3337 10.5855 21.3337 12ZM18.667 12C18.667 12.7072 18.386 13.3855 17.8859 13.8856C17.3858 14.3857 16.7076 14.6666 16.0003 14.6666C15.2931 14.6666 14.6148 14.3857 14.1147 13.8856C13.6146 13.3855 13.3337 12.7072 13.3337 12C13.3337 11.2927 13.6146 10.6144 14.1147 10.1143C14.6148 9.61424 15.2931 9.33329 16.0003 9.33329C16.7076 9.33329 17.3858 9.61424 17.8859 10.1143C18.386 10.6144 18.667 11.2927 18.667 12Z" fill="#524EEE"/>
<path fill-rule="evenodd" clip-rule="evenodd" d="M16.0002 1.33331C7.90016 1.33331 1.3335 7.89998 1.3335 16C1.3335 24.1 7.90016 30.6666 16.0002 30.6666C24.1002 30.6666 30.6668 24.1 30.6668 16C30.6668 7.89998 24.1002 1.33331 16.0002 1.33331ZM4.00016 16C4.00016 18.7866 4.95083 21.352 6.54416 23.3893C7.66314 21.9198 9.1067 20.729 10.7621 19.9097C12.4175 19.0905 14.2398 18.665 16.0868 18.6666C17.9099 18.6649 19.7094 19.0793 21.3481 19.8784C22.9868 20.6774 24.4214 21.8399 25.5428 23.2773C26.6981 21.7621 27.4759 19.9936 27.812 18.1181C28.1481 16.2426 28.0327 14.314 27.4755 12.492C26.9182 10.6699 25.9351 9.00671 24.6075 7.64003C23.2798 6.27335 21.6458 5.24246 19.8407 4.63266C18.0355 4.02286 16.1111 3.85168 14.2266 4.13328C12.3422 4.41488 10.5519 5.14117 9.00385 6.25205C7.45583 7.36293 6.19458 8.82647 5.32447 10.5216C4.45436 12.2167 4.0004 14.0946 4.00016 16ZM16.0002 28C13.2454 28.0041 10.5739 27.0564 8.4375 25.3173C9.2974 24.0863 10.4419 23.0812 11.7738 22.3876C13.1056 21.6939 14.5852 21.3322 16.0868 21.3333C17.5697 21.3321 19.0315 21.6847 20.3507 22.3619C21.67 23.039 22.8087 24.0211 23.6722 25.2266C21.5192 27.0223 18.8036 28.0039 16.0002 28Z" fill="#524EEE"/>
</svg>
