<svg width="33" height="32" viewBox="0 0 33 32" fill="none" xmlns="http://www.w3.org/2000/svg">
<g clip-path="url(#clip0_100_3713)">
<path d="M29.3801 12.5493C31.2841 19.6613 27.0641 26.9733 19.9508 28.8787C13.8201 30.5213 7.54544 27.612 4.70678 22.2253C4.54199 21.9124 4.50827 21.5468 4.61304 21.209C4.71781 20.8712 4.95249 20.5888 5.26544 20.424C5.5784 20.2592 5.944 20.2255 6.28181 20.3303C6.61963 20.435 6.90199 20.6697 7.06678 20.9827C8.20934 23.146 10.0608 24.8508 12.3109 25.8113C14.561 26.7719 17.0729 26.9297 19.4255 26.2584C21.7781 25.5872 23.8285 24.1276 25.2329 22.1243C26.6373 20.121 27.3104 17.6959 27.1393 15.2554C26.9683 12.8148 25.9635 10.5073 24.2933 8.71952C22.6232 6.93175 20.3893 5.77243 17.9661 5.43589C15.5428 5.09935 13.0775 5.60604 10.9834 6.87104C8.88933 8.13605 7.29374 10.0825 6.46411 12.384L7.87344 12.0707C9.45478 11.7173 10.3561 13.812 9.01211 14.7173L5.44811 17.12C4.49078 17.764 3.15478 17.0987 3.16411 15.896C3.1881 12.9788 4.16789 10.1499 5.95337 7.84281C7.73885 5.5357 10.2315 3.87764 13.0494 3.12268C20.1614 1.21334 27.4734 5.43467 29.3788 12.5467L29.3801 12.5493ZM16.5001 8.00001C16.8537 8.00001 17.1929 8.14048 17.4429 8.39053C17.693 8.64058 17.8334 8.97972 17.8334 9.33334V10.6667H20.5001C20.8537 10.6667 21.1929 10.8072 21.4429 11.0572C21.693 11.3072 21.8334 11.6464 21.8334 12C21.8334 12.3536 21.693 12.6928 21.4429 12.9428C21.1929 13.1929 20.8537 13.3333 20.5001 13.3333H13.8334C13.6566 13.3333 13.4871 13.4036 13.362 13.5286C13.237 13.6536 13.1668 13.8232 13.1668 14C13.1668 14.1768 13.237 14.3464 13.362 14.4714C13.4871 14.5964 13.6566 14.6667 13.8334 14.6667H19.1668C20.0508 14.6667 20.8987 15.0179 21.5238 15.643C22.1489 16.2681 22.5001 17.116 22.5001 18C22.5001 18.8841 22.1489 19.7319 21.5238 20.357C20.8987 20.9822 20.0508 21.3333 19.1668 21.3333H17.8334V22.6667C17.8334 23.0203 17.693 23.3594 17.4429 23.6095C17.1929 23.8595 16.8537 24 16.5001 24C16.1465 24 15.8073 23.8595 15.5573 23.6095C15.3073 23.3594 15.1668 23.0203 15.1668 22.6667V21.3333H12.5001C12.1465 21.3333 11.8074 21.1929 11.5573 20.9428C11.3073 20.6928 11.1668 20.3536 11.1668 20C11.1668 19.6464 11.3073 19.3072 11.5573 19.0572C11.8074 18.8072 12.1465 18.6667 12.5001 18.6667H19.1668C19.3436 18.6667 19.5132 18.5964 19.6382 18.4714C19.7632 18.3464 19.8334 18.1768 19.8334 18C19.8334 17.8232 19.7632 17.6536 19.6382 17.5286C19.5132 17.4036 19.3436 17.3333 19.1668 17.3333H13.8334C12.9494 17.3333 12.1015 16.9822 11.4764 16.357C10.8513 15.7319 10.5001 14.8841 10.5001 14C10.5001 13.116 10.8513 12.2681 11.4764 11.643C12.1015 11.0179 12.9494 10.6667 13.8334 10.6667H15.1668V9.33334C15.1668 8.97972 15.3073 8.64058 15.5573 8.39053C15.8073 8.14048 16.1465 8.00001 16.5001 8.00001Z" fill="#524EEE"/>
</g>
<defs>
<clipPath id="clip0_100_3713">
<rect width="32" height="32" fill="white" transform="translate(0.5)"/>
</clipPath>
</defs>
</svg>
