<svg width="33" height="32" viewBox="0 0 33 32" fill="none" xmlns="http://www.w3.org/2000/svg">
<path d="M18.1799 4.00001C11.3932 3.81335 5.83321 9.26668 5.83321 16H3.44654C2.84654 16 2.55321 16.72 2.97988 17.1333L6.69988 20.8667C6.96654 21.1333 7.37988 21.1333 7.64654 20.8667L11.3665 17.1333C11.4587 17.0394 11.5209 16.9202 11.5455 16.7909C11.57 16.6616 11.5557 16.5279 11.5043 16.4067C11.453 16.2855 11.3669 16.1822 11.257 16.1098C11.1471 16.0374 11.0182 15.9992 10.8865 16H8.49988C8.49988 10.8 12.7399 6.60001 17.9665 6.66668C22.9265 6.73335 27.0999 10.9067 27.1665 15.8667C27.2332 21.08 23.0332 25.3333 17.8332 25.3333C15.6865 25.3333 13.6999 24.6 12.1265 23.36C11.8712 23.1588 11.5507 23.0585 11.2262 23.0782C10.9017 23.0979 10.5958 23.2361 10.3665 23.4667C9.80654 24.0267 9.84654 24.9733 10.4732 25.4533C12.568 27.11 15.1625 28.0077 17.8332 28C24.5665 28 30.0199 22.44 29.8332 15.6533C29.6599 9.40001 24.4332 4.17335 18.1799 4.00001ZM17.4999 10.6667C16.9532 10.6667 16.4999 11.12 16.4999 11.6667V16.5733C16.4999 17.04 16.7532 17.48 17.1532 17.72L21.3132 20.1867C21.7932 20.4667 22.4065 20.3067 22.6865 19.84C22.9665 19.36 22.8065 18.7467 22.3399 18.4667L18.4999 16.1867V11.6533C18.4999 11.12 18.0465 10.6667 17.4999 10.6667Z" fill="#524EEE"/>
</svg>
