<svg width="33" height="32" viewBox="0 0 33 32" fill="none" xmlns="http://www.w3.org/2000/svg">
<path d="M16.5 17.475L18.4 18.625C18.5833 18.7417 18.7667 18.7377 18.95 18.613C19.1333 18.4883 19.2 18.3173 19.15 18.1L18.65 15.925L20.35 14.45C20.5167 14.3 20.5667 14.121 20.5 13.913C20.4333 13.705 20.2833 13.5923 20.05 13.575L17.825 13.4L16.95 11.35C16.8667 11.15 16.7167 11.05 16.5 11.05C16.2833 11.05 16.1333 11.15 16.05 11.35L15.175 13.4L12.95 13.575C12.7167 13.5917 12.5667 13.7043 12.5 13.913C12.4333 14.1217 12.4833 14.3007 12.65 14.45L14.35 15.925L13.85 18.1C13.8 18.3167 13.8667 18.4877 14.05 18.613C14.2333 18.7383 14.4167 18.7423 14.6 18.625L16.5 17.475ZM10.5 23L8.2 25.3C7.88334 25.6167 7.52067 25.6877 7.112 25.513C6.70333 25.3383 6.49933 25.0257 6.5 24.575V9C6.5 8.45 6.696 7.97933 7.088 7.588C7.48 7.19667 7.95067 7.00067 8.5 7H24.5C25.05 7 25.521 7.196 25.913 7.588C26.305 7.98 26.5007 8.45067 26.5 9V21C26.5 21.55 26.3043 22.021 25.913 22.413C25.5217 22.805 25.0507 23.0007 24.5 23H10.5ZM9.65 21H24.5V9H8.5V22.125L9.65 21Z" fill="#524EEE"/>
</svg>
