<svg width="32" height="32" viewBox="0 0 32 32" fill="none" xmlns="http://www.w3.org/2000/svg">
<path d="M13.3333 2.66669C11.6357 2.66651 9.96254 3.07152 8.45293 3.84807C6.94332 4.62462 5.64086 5.75027 4.65381 7.13147C3.66676 8.51266 3.02363 10.1095 2.77788 11.7892C2.53213 13.469 2.69086 15.1831 3.24087 16.7892C3.79088 18.3953 4.71629 19.8469 5.94017 21.0233C7.16405 22.1998 8.65106 23.0671 10.2776 23.5533C11.9041 24.0394 13.6232 24.1303 15.2919 23.8184C16.9607 23.5065 18.5309 22.8009 19.872 21.76L27.056 28.9414C27.179 29.0687 27.3261 29.1703 27.4888 29.2402C27.6515 29.31 27.8264 29.3468 28.0035 29.3484C28.1805 29.3499 28.3561 29.3162 28.5199 29.2491C28.6838 29.1821 28.8327 29.0831 28.9579 28.9579C29.0831 28.8327 29.1821 28.6838 29.2491 28.52C29.3161 28.3561 29.3499 28.1805 29.3483 28.0035C29.3468 27.8264 29.31 27.6515 29.2401 27.4888C29.1703 27.3261 29.0687 27.179 28.9413 27.056L21.76 19.8747C22.9841 18.298 23.7413 16.4094 23.9453 14.4237C24.1494 12.438 23.7921 10.4349 22.9142 8.64222C22.0364 6.84949 20.673 5.33907 18.9793 4.28272C17.2856 3.22637 15.3295 2.66647 13.3333 2.66669ZM5.33334 13.3334C5.33334 11.2116 6.17619 9.17679 7.67648 7.6765C9.17677 6.17621 11.2116 5.33335 13.3333 5.33335C15.4551 5.33335 17.4899 6.17621 18.9902 7.6765C20.4905 9.17679 21.3333 11.2116 21.3333 13.3334C21.3333 15.4551 20.4905 17.4899 18.9902 18.9902C17.4899 20.4905 15.4551 21.3334 13.3333 21.3334C11.2116 21.3334 9.17677 20.4905 7.67648 18.9902C6.17619 17.4899 5.33334 15.4551 5.33334 13.3334Z" fill="#524EEE"/>
</svg>
