<svg width="33" height="32" viewBox="0 0 33 32" fill="none" xmlns="http://www.w3.org/2000/svg">
<path d="M1.8335 16C1.8335 16 7.4175 8.00002 16.5002 8.00002C17.7628 8.00002 18.9522 8.16135 20.0708 8.42935L11.6468 16.8534C11.3324 16.1672 11.1687 15.4215 11.1668 14.6667C11.1668 13.4174 11.6135 12.284 12.3335 11.3747C9.14416 12.4574 6.71483 14.5547 5.32816 16C6.50942 17.2324 7.84491 18.3071 9.3015 19.1974L7.36416 21.1347C3.8295 18.84 1.8335 16 1.8335 16ZM31.1668 16C31.1668 16 25.5828 24 16.5002 24C15.2388 24 14.0522 23.8347 12.9322 23.5694L7.16683 29.3334L5.16683 27.3334L27.8335 4.66669L29.8335 6.66669L25.6375 10.8627C29.1682 13.1587 31.1668 16 31.1668 16ZM27.6802 16.008C26.4968 14.7722 25.1581 13.6952 23.6975 12.804L21.8335 14.6667C21.8335 16.0812 21.2716 17.4377 20.2714 18.4379C19.2712 19.4381 17.9147 20 16.5002 20L15.2375 21.2627C15.6508 21.304 16.0695 21.3334 16.5002 21.3334C21.8042 21.3334 25.7575 18.0294 27.6802 16.008Z" fill="#524EEE"/>
</svg>
